<svg xmlns="http://www.w3.org/2000/svg" viewBox="0 0 188 37"><path fill="#ffffff" d="M183.2 7.1h-44c-2.2 0-4 1.8-4 4v21c0 2.2 1.8 4 4 4h44c2.2 0 4-1.8 4-4v-21c0-2.2-1.8-4-4-4zm-28.6 20h-3.1l-4.1-6.1v6.1h-3.1v-11h3.1l4.1 6.2v-6.2h3.1v11zm11.5-8.6-4.4.1v1.9h3.2v2.3h-3.2v4.3h-3.1v-11h7.5v2.4zm11.9 0h-2.9v8.6H172v-8.6h-2.9v-2.4h8.9v2.4zm-55.2-5.8c-.7 0-1.4.2-2 .5-.6.3-1.1.8-1.5 1.4V13h-6v21.7h6v-5.9c.4.6.9 1 1.5 1.4.6.3 1.3.5 2 .5 2.8 0 4.5-2.3 4.5-7.5v-3c0-5.2-1.6-7.5-4.5-7.5zm-1.5 11.7c0 1.5-.2 2.6-1 2.6s-1-1.1-1-2.6V19c0-1.5.2-2.6 1-2.6s1 1.1 1 2.6v5.4zm-16.9-11.7c-4.1 0-7 2.3-7 7.5v3c0 5.2 2.9 7.5 7 7.5s7-2.3 7-7.5v-3c0-5.2-2.9-7.5-7-7.5zm1 12.2c0 1.5-.2 2.6-1 2.6s-1-1.1-1-2.6v-6.5c0-1.5.2-2.6 1-2.6s1 1.1 1 2.6v6.5zM94.5 13h2v2.3h-2v10.4c0 1.1.2 2.1 1.2 2.1.3 0 .6 0 .8-.2V30c-1 .5-2.2.7-3.4.7-2.8 0-4.5-1.6-4.6-4.7V15.3h-1.2V13h1.2v-2.3h6V13zm-7.7 11.3c0 4.1-3.1 6.5-7.3 6.5-4.4 0-7.2-2-7.2-6.4v-.9h6v1.8c0 1.3.5 1.8 1.1 1.8.6 0 1.1-.4 1.1-1.8 0-2.3-1.7-3.2-3.6-4.2-2.3-1.2-4.8-2.6-4.8-6.6s3-6.2 7.1-6.2c4.2 0 7.1 1.9 7.1 6.2v.8h-6v-1.6c0-1.3-.5-1.8-1.1-1.8s-1.1.4-1.1 1.8c0 1.9 1.6 2.6 3.4 3.5 2.4 1.1 5.3 2.3 5.3 7.1zM63.7 12.7c-4.1 0-7 2.3-7 7.5v3c0 5.2 3 7.5 7 7.5s6.9-2.3 7-7.3H65V25c0 1.5-.2 2.6-1.2 2.6s-1.1-1.1-1.1-2.6v-3h8v-1.8c0-5.2-2.9-7.5-7-7.5zm1 6.5h-2v-.9c0-1.4.1-2.6 1-2.6.8 0 1 1.1 1 2.6v.9zm-9.9-1.3v12.4h-6V19c0-1.5-.2-2.6-1-2.6s-1 1.1-1 2.6v11.4h-6V19c0-1.5-.2-2.6-1-2.6s-1 1.1-1 2.6v11.3h-6V13h6v1.8c.4-.7.9-1.2 1.6-1.6.7-.3 1.4-.5 2.2-.5 1.7 0 3.1.6 4 2.3.3-.7.9-1.3 1.6-1.7.7-.4 1.5-.6 2.3-.6 2.3 0 4.3 1.4 4.3 5.2zm-31-5.2c-4 0-6.9 1.4-6.9 5.7v.4h5.7v-1c0-1.5.4-2.2 1-2.2s1 .6 1 2.2-1.5 2.2-3.3 2.7c-2.2.7-4.7 1.6-4.7 5.1 0 4.5 3 4.9 4.3 4.9 1.9 0 3-.8 3.7-1.8v1.5h6V18.4h.1c0-4.4-2.9-5.7-6.9-5.7zm.9 12.5c0 1.4-.4 2-1 2s-1-.6-1-2c0-1.9 1-2.7 1.7-3.3.1-.1.2-.1.3-.2v3.5zM15 15.8v.9H8.5v-1.3c0-1.8-.1-3.5-1-3.5s-1 1.7-1 3.5v7.9c0 1.9.3 3.6 1.4 3.6 1.2 0 1.4-1.7 1.4-3.6v-.8H7.7v-3.7H15v11.5h-4.2l-.5-1.7c-.6 1-1.9 2-4 2-4.6 0-6.3-4.1-6.3-8.2v-6.2c0-6 3.5-8.1 7.5-8.1 3.9.1 7.5 1.7 7.5 7.7z"></path><path fill="#A4A4A4" d="M46 1h-2.5l-3.3 9.1h2.3l.5-1.6h3.4l.6 1.6h2.3L46 1zm-2.3 5.8 1.1-3.3 1.1 3.3h-2.2zM32.6 1h7v1.8h-2.4v7.3H35V2.8h-2.4V1zm-4.3 7.3h3.4v1.8H26V1h5.6v1.8h-3.3v1.8h3v1.7h-3v2zM23 5.4c.5-.1.8-.3 1.2-.8.3-.3.4-.8.4-1.3 0-.7-.3-1.3-.8-1.7-.5-.4-1.3-.6-2.2-.6h-4.1v9.1h4.3c.9 0 1.7-.3 2.2-.7.5-.4.8-1 .8-1.8 0-.5-.2-1-.5-1.4-.3-.4-.8-.7-1.3-.8zm-3.3-2.6h1.5c.3 0 .6 0 .8.2s.3.5.3.8-.1.5-.3.7c-.2.1-.4.2-.8.2h-1.5V2.8zm2.5 5.3c-.2.1-.5.2-.9.2h-1.6v-2h1.6c.4 0 .7.1.9.3.2.2.3.5.3.8 0 .3-.1.5-.3.7z"></path></svg>