<?xml version="1.0" encoding="UTF-8"?>
<svg version="1.1" xmlns="http://www.w3.org/2000/svg" width="200" height="200">
<path d="M0,0 L2,0 L2,1 L3,1 L3,2 L5,2 L5,3 L7,3 L7,4 L9,4 L9,5 L10,5 L10,6 L12,6 L12,7 L14,7 L14,8 L16,8 L16,9 L17,9 L17,10 L19,10 L19,11 L21,11 L21,12 L23,12 L23,13 L24,13 L24,14 L26,14 L26,15 L28,15 L28,16 L30,16 L30,17 L31,17 L31,18 L33,18 L33,19 L35,19 L35,20 L36,20 L36,21 L38,21 L38,22 L40,22 L40,23 L42,23 L42,24 L43,24 L43,25 L45,25 L45,26 L47,26 L47,27 L49,27 L49,28 L50,28 L50,29 L52,29 L52,30 L54,30 L54,31 L56,31 L56,32 L57,32 L57,33 L59,33 L59,34 L61,34 L61,35 L62,35 L62,36 L64,36 L64,37 L66,37 L66,38 L68,38 L68,39 L69,39 L69,40 L71,40 L71,41 L73,41 L73,42 L75,42 L75,43 L76,43 L76,44 L74,44 L74,45 L73,45 L73,46 L71,46 L71,47 L69,47 L69,48 L67,48 L67,49 L66,49 L66,50 L64,50 L64,51 L62,51 L62,52 L61,52 L61,53 L59,53 L59,54 L57,54 L57,53 L55,53 L55,52 L53,52 L53,51 L51,51 L51,50 L50,50 L50,49 L48,49 L48,48 L46,48 L46,47 L44,47 L44,46 L43,46 L43,45 L41,45 L41,44 L39,44 L39,43 L37,43 L37,42 L36,42 L36,41 L34,41 L34,40 L32,40 L32,39 L30,39 L30,38 L29,38 L29,37 L27,37 L27,36 L25,36 L25,35 L24,35 L24,34 L22,34 L22,33 L20,33 L20,32 L18,32 L18,31 L17,31 L17,30 L15,30 L15,29 L13,29 L13,28 L11,28 L11,27 L10,27 L10,26 L8,26 L8,25 L6,25 L6,24 L5,24 L5,23 L3,23 L3,22 L1,22 L1,21 L-1,21 L-1,20 L-3,20 L-3,19 L-4,19 L-4,18 L-6,18 L-6,17 L-8,17 L-8,16 L-9,16 L-9,15 L-11,15 L-11,14 L-13,14 L-13,13 L-15,13 L-15,12 L-16,12 L-16,11 L-17,11 L-17,10 L-15,10 L-15,9 L-13,9 L-13,8 L-12,8 L-12,7 L-10,7 L-10,6 L-8,6 L-8,5 L-7,5 L-7,4 L-5,4 L-5,3 L-3,3 L-3,2 L-1,2 L-1,1 L0,1 Z " fill="#000000" transform="translate(99,9)"/>
<path d="M0,0 L4,0 L4,1 L5,1 L5,2 L7,2 L7,3 L9,3 L9,4 L11,4 L11,5 L12,5 L12,6 L14,6 L14,7 L16,7 L16,8 L18,8 L18,9 L19,9 L19,10 L20,10 L20,11 L18,11 L18,12 L16,12 L16,13 L15,13 L15,14 L13,14 L13,15 L11,15 L11,16 L9,16 L9,17 L8,17 L8,18 L6,18 L6,19 L4,19 L4,20 L2,20 L2,21 L1,21 L1,20 L-1,20 L-1,19 L-2,19 L-2,18 L-4,18 L-4,17 L-6,17 L-6,16 L-7,16 L-7,15 L-9,15 L-9,14 L-11,14 L-11,13 L-13,13 L-13,12 L-14,12 L-14,11 L-16,11 L-16,9 L-14,9 L-14,8 L-12,8 L-12,7 L-11,7 L-11,6 L-9,6 L-9,5 L-7,5 L-7,4 L-5,4 L-5,3 L-4,3 L-4,2 L-2,2 L-2,1 L0,1 Z " fill="#000000" transform="translate(70,26)"/>
<path d="M0,0 L3,0 L3,1 L5,1 L5,2 L6,2 L6,3 L8,3 L8,4 L10,4 L10,5 L12,5 L12,6 L13,6 L13,7 L15,7 L15,8 L17,8 L17,9 L19,9 L19,10 L20,10 L20,11 L22,11 L22,12 L24,12 L24,13 L25,13 L25,14 L27,14 L27,15 L29,15 L29,16 L31,16 L31,17 L32,17 L32,18 L34,18 L34,19 L36,19 L36,20 L38,20 L38,21 L39,21 L39,22 L41,22 L41,23 L43,23 L43,24 L45,24 L45,25 L46,25 L46,26 L48,26 L48,27 L50,27 L50,28 L51,28 L51,29 L53,29 L53,30 L55,30 L55,31 L57,31 L57,32 L58,32 L58,33 L60,33 L60,34 L62,34 L62,35 L64,35 L64,36 L65,36 L65,37 L67,37 L67,38 L69,38 L69,39 L70,39 L70,40 L72,40 L72,41 L74,41 L74,42 L76,42 L76,44 L74,44 L74,45 L72,45 L72,46 L71,46 L71,47 L69,47 L69,48 L67,48 L67,49 L65,49 L65,50 L64,50 L64,51 L62,51 L62,52 L60,52 L60,53 L56,53 L56,52 L54,52 L54,51 L52,51 L52,50 L51,50 L51,49 L49,49 L49,48 L47,48 L47,47 L45,47 L45,46 L44,46 L44,45 L42,45 L42,44 L40,44 L40,43 L38,43 L38,42 L37,42 L37,41 L35,41 L35,40 L33,40 L33,39 L32,39 L32,38 L30,38 L30,37 L28,37 L28,36 L26,36 L26,35 L25,35 L25,34 L23,34 L23,33 L21,33 L21,32 L19,32 L19,31 L18,31 L18,30 L16,30 L16,29 L14,29 L14,28 L12,28 L12,27 L11,27 L11,26 L9,26 L9,25 L7,25 L7,24 L6,24 L6,23 L4,23 L4,22 L2,22 L2,21 L0,21 L0,20 L-1,20 L-1,19 L-3,19 L-3,18 L-5,18 L-5,17 L-7,17 L-7,16 L-8,16 L-8,15 L-10,15 L-10,14 L-12,14 L-12,13 L-13,13 L-13,12 L-15,12 L-15,11 L-17,11 L-17,10 L-15,10 L-15,9 L-14,9 L-14,8 L-12,8 L-12,7 L-10,7 L-10,6 L-8,6 L-8,5 L-7,5 L-7,4 L-5,4 L-5,3 L-3,3 L-3,2 L-2,2 L-2,1 L0,1 Z " fill="#000000" transform="translate(42,42)"/>
<path d="M0,0 L2,0 L2,1 L4,1 L4,2 L6,2 L6,3 L8,3 L8,4 L9,4 L9,5 L11,5 L11,6 L13,6 L13,7 L15,7 L15,8 L16,8 L16,9 L18,9 L18,10 L20,10 L20,11 L21,11 L21,12 L23,12 L23,13 L25,13 L25,14 L27,14 L27,15 L28,15 L28,16 L30,16 L30,17 L32,17 L32,18 L34,18 L34,19 L35,19 L35,20 L37,20 L37,21 L39,21 L39,22 L41,22 L41,23 L42,23 L42,24 L44,24 L44,25 L46,25 L46,26 L47,26 L47,28 L45,28 L45,29 L43,29 L43,30 L41,30 L41,31 L40,31 L40,32 L38,32 L38,33 L36,33 L36,34 L35,34 L35,35 L33,35 L33,36 L31,36 L31,37 L28,37 L28,36 L26,36 L26,35 L24,35 L24,34 L22,34 L22,33 L21,33 L21,32 L19,32 L19,31 L17,31 L17,30 L16,30 L16,29 L14,29 L14,28 L12,28 L12,27 L10,27 L10,26 L9,26 L9,25 L7,25 L7,24 L5,24 L5,23 L3,23 L3,22 L2,22 L2,21 L0,21 L0,20 L-2,20 L-2,19 L-4,19 L-4,18 L-5,18 L-5,17 L-7,17 L-7,16 L-9,16 L-9,15 L-10,15 L-10,14 L-12,14 L-12,13 L-14,13 L-14,12 L-16,12 L-16,11 L-17,11 L-17,10 L-16,10 L-16,9 L-14,9 L-14,8 L-12,8 L-12,7 L-11,7 L-11,6 L-9,6 L-9,5 L-7,5 L-7,4 L-5,4 L-5,3 L-4,3 L-4,2 L-2,2 L-2,1 L0,1 Z " fill="#000000" transform="translate(99,42)"/>
<path d="M0,0 L1,0 L1,22 L-1,22 L-1,23 L-2,23 L-2,24 L-4,24 L-4,25 L-6,25 L-6,26 L-8,26 L-8,27 L-9,27 L-9,28 L-11,28 L-11,29 L-13,29 L-13,30 L-14,30 L-14,31 L-16,31 L-16,32 L-18,32 L-18,33 L-20,33 L-20,34 L-21,34 L-21,35 L-23,35 L-23,36 L-25,36 L-25,37 L-27,37 L-27,38 L-28,38 L-28,39 L-30,39 L-30,40 L-32,40 L-32,41 L-34,41 L-34,42 L-35,42 L-35,43 L-37,43 L-37,44 L-39,44 L-39,45 L-41,45 L-41,46 L-42,46 L-42,47 L-44,47 L-44,48 L-46,48 L-46,49 L-47,49 L-47,50 L-49,50 L-49,51 L-51,51 L-51,52 L-53,52 L-53,53 L-54,53 L-54,54 L-55,54 L-55,97 L-53,97 L-53,96 L-51,96 L-51,95 L-50,95 L-50,94 L-48,94 L-48,93 L-46,93 L-46,92 L-44,92 L-44,91 L-43,91 L-43,90 L-41,90 L-41,89 L-39,89 L-39,88 L-37,88 L-37,87 L-36,87 L-36,86 L-34,86 L-34,85 L-32,85 L-32,84 L-31,84 L-31,83 L-29,83 L-29,82 L-27,82 L-27,81 L-25,81 L-25,80 L-24,80 L-24,79 L-22,79 L-22,78 L-20,78 L-20,77 L-18,77 L-18,75 L-17,75 L-17,66 L-18,66 L-18,65 L-19,65 L-19,66 L-20,66 L-20,67 L-22,67 L-22,68 L-24,68 L-24,69 L-26,69 L-26,70 L-27,70 L-27,71 L-29,71 L-29,72 L-31,72 L-31,73 L-33,73 L-33,74 L-34,74 L-34,75 L-36,75 L-36,76 L-38,76 L-38,77 L-39,77 L-39,78 L-41,78 L-41,79 L-43,79 L-43,80 L-46,80 L-46,60 L-45,60 L-45,59 L-44,59 L-44,58 L-42,58 L-42,57 L-40,57 L-40,56 L-38,56 L-38,55 L-37,55 L-37,54 L-35,54 L-35,53 L-33,53 L-33,52 L-31,52 L-31,51 L-30,51 L-30,50 L-28,50 L-28,49 L-26,49 L-26,48 L-25,48 L-25,47 L-23,47 L-23,46 L-21,46 L-21,45 L-19,45 L-19,44 L-18,44 L-18,43 L-16,43 L-16,42 L-14,42 L-14,41 L-12,41 L-12,40 L-11,40 L-11,39 L-9,39 L-9,38 L-7,38 L-7,37 L-6,37 L-6,36 L-4,36 L-4,35 L-2,35 L-2,34 L0,34 L0,33 L1,33 L1,87 L0,87 L0,88 L-2,88 L-2,89 L-4,89 L-4,90 L-5,90 L-5,91 L-7,91 L-7,92 L-9,92 L-9,93 L-11,93 L-11,94 L-12,94 L-12,95 L-14,95 L-14,96 L-16,96 L-16,97 L-17,97 L-17,98 L-19,98 L-19,99 L-21,99 L-21,100 L-23,100 L-23,101 L-24,101 L-24,102 L-26,102 L-26,103 L-28,103 L-28,104 L-29,104 L-29,105 L-31,105 L-31,106 L-33,106 L-33,107 L-35,107 L-35,108 L-36,108 L-36,109 L-38,109 L-38,110 L-40,110 L-40,111 L-42,111 L-42,112 L-43,112 L-43,113 L-45,113 L-45,114 L-47,114 L-47,115 L-49,115 L-49,116 L-50,116 L-50,117 L-52,117 L-52,118 L-54,118 L-54,119 L-56,119 L-56,120 L-57,120 L-57,121 L-59,121 L-59,122 L-61,122 L-61,123 L-63,123 L-63,124 L-64,124 L-64,125 L-66,125 L-66,126 L-68,126 L-68,127 L-69,127 L-69,128 L-71,128 L-71,129 L-73,129 L-73,130 L-74,130 L-74,43 L-72,43 L-72,42 L-71,42 L-71,41 L-69,41 L-69,40 L-67,40 L-67,39 L-66,39 L-66,38 L-64,38 L-64,37 L-62,37 L-62,36 L-60,36 L-60,35 L-59,35 L-59,34 L-57,34 L-57,33 L-55,33 L-55,32 L-53,32 L-53,31 L-52,31 L-52,30 L-50,30 L-50,29 L-48,29 L-48,28 L-46,28 L-46,27 L-45,27 L-45,26 L-43,26 L-43,25 L-41,25 L-41,24 L-40,24 L-40,23 L-38,23 L-38,22 L-36,22 L-36,21 L-34,21 L-34,20 L-33,20 L-33,19 L-31,19 L-31,18 L-29,18 L-29,17 L-27,17 L-27,16 L-26,16 L-26,15 L-24,15 L-24,14 L-22,14 L-22,13 L-21,13 L-21,12 L-19,12 L-19,11 L-17,11 L-17,10 L-15,10 L-15,9 L-14,9 L-14,8 L-12,8 L-12,7 L-10,7 L-10,6 L-8,6 L-8,5 L-7,5 L-7,4 L-5,4 L-5,3 L-3,3 L-3,2 L-1,2 L-1,1 L0,1 Z " fill="#000000" transform="translate(179,61)"/>
<path d="M0,0 L3,0 L3,1 L4,1 L4,2 L6,2 L6,3 L8,3 L8,4 L10,4 L10,5 L11,5 L11,6 L13,6 L13,7 L15,7 L15,8 L17,8 L17,9 L18,9 L18,10 L20,10 L20,11 L22,11 L22,12 L23,12 L23,13 L25,13 L25,14 L27,14 L27,15 L29,15 L29,16 L30,16 L30,17 L32,17 L32,18 L34,18 L34,19 L36,19 L36,20 L37,20 L37,21 L39,21 L39,22 L41,22 L41,23 L42,23 L42,24 L44,24 L44,25 L46,25 L46,26 L48,26 L48,27 L49,27 L49,28 L51,28 L51,29 L53,29 L53,30 L55,30 L55,31 L56,31 L56,32 L58,32 L58,33 L60,33 L60,34 L61,34 L61,35 L63,35 L63,36 L65,36 L65,37 L67,37 L67,38 L68,38 L68,39 L70,39 L70,40 L72,40 L72,41 L74,41 L74,42 L75,42 L75,78 L74,78 L74,79 L72,79 L72,80 L70,80 L70,82 L71,82 L71,84 L72,84 L72,85 L73,85 L73,87 L74,87 L74,89 L75,89 L75,129 L74,129 L74,128 L72,128 L72,127 L71,127 L71,126 L69,126 L69,125 L67,125 L67,124 L65,124 L65,123 L64,123 L64,122 L62,122 L62,121 L60,121 L60,120 L59,120 L59,119 L57,119 L57,118 L55,118 L55,117 L53,117 L53,116 L52,116 L52,115 L50,115 L50,114 L48,114 L48,113 L46,113 L46,112 L45,112 L45,111 L43,111 L43,110 L41,110 L41,109 L39,109 L39,108 L38,108 L38,107 L36,107 L36,106 L34,106 L34,105 L32,105 L32,104 L31,104 L31,103 L29,103 L29,102 L27,102 L27,101 L26,101 L26,100 L24,100 L24,99 L22,99 L22,98 L20,98 L20,97 L19,97 L19,96 L17,96 L17,95 L15,95 L15,94 L13,94 L13,93 L12,93 L12,92 L10,92 L10,91 L8,91 L8,90 L7,90 L7,89 L5,89 L5,88 L3,88 L3,87 L1,87 L1,86 L0,86 Z M19,32 L19,43 L20,43 L20,44 L22,44 L22,45 L24,45 L24,46 L26,46 L26,47 L27,47 L27,48 L29,48 L29,49 L31,49 L31,50 L33,50 L33,51 L34,51 L34,52 L36,52 L36,53 L38,53 L38,54 L40,54 L40,55 L41,55 L41,56 L43,56 L43,57 L45,57 L45,58 L47,58 L47,59 L48,59 L48,60 L50,60 L50,61 L52,61 L52,62 L53,62 L53,63 L55,63 L55,64 L56,64 L56,63 L57,63 L57,54 L56,54 L56,53 L55,53 L55,52 L54,52 L54,51 L52,51 L52,50 L50,50 L50,49 L48,49 L48,48 L47,48 L47,47 L45,47 L45,46 L43,46 L43,45 L42,45 L42,44 L40,44 L40,43 L38,43 L38,42 L36,42 L36,41 L35,41 L35,40 L33,40 L33,39 L31,39 L31,38 L30,38 L30,37 L28,37 L28,36 L26,36 L26,35 L24,35 L24,34 L23,34 L23,33 L21,33 L21,32 Z M19,64 L19,76 L21,76 L21,77 L23,77 L23,78 L25,78 L25,79 L26,79 L26,80 L28,80 L28,81 L30,81 L30,82 L32,82 L32,83 L33,83 L33,84 L35,84 L35,85 L37,85 L37,86 L38,86 L38,87 L40,87 L40,88 L42,88 L42,89 L44,89 L44,90 L45,90 L45,91 L47,91 L47,92 L49,92 L49,93 L51,93 L51,94 L52,94 L52,95 L54,95 L54,96 L57,96 L57,86 L56,86 L56,85 L54,85 L54,84 L53,84 L53,83 L51,83 L51,82 L49,82 L49,81 L47,81 L47,80 L46,80 L46,79 L44,79 L44,78 L42,78 L42,77 L41,77 L41,76 L39,76 L39,75 L37,75 L37,74 L35,74 L35,73 L34,73 L34,72 L32,72 L32,71 L30,71 L30,70 L28,70 L28,69 L27,69 L27,68 L25,68 L25,67 L23,67 L23,66 L21,66 L21,65 L20,65 L20,64 Z " fill="#000000" transform="translate(20,62)"/>
</svg>
