<svg xmlns="http://www.w3.org/2000/svg" xmlns:xlink="http://www.w3.org/1999/xlink" width="200" height="70" viewBox="0 0 1904.64 702">
  <defs>
    <clipPath id="clip-BIG-Logo-Blue">
      <rect width="1904.64" height="702"/>
    </clipPath>
  </defs>
  <g id="BIG-Logo-Blue" clip-path="url(#clip-BIG-Logo-Blue)">
    <g id="Group_2" data-name="Group 2">
      <path id="Path_1" data-name="Path 1" d="M2.03,199.6V532.98l153.843,88.838L219.3,658.452l71.4,41.219V548.933l-20.442-35.44,20.442-11.8V366.242L73.435,240.77,2.03,199.551ZM400.177,575.967,521.732,505.8h0l24.359-14.042V448.728L437.48,511.44V429L546.091,366.29l71.4-41.219V532.98L463.653,621.818l-63.428,36.634-71.4,41.219V366.29L546.091,240.818,617.5,199.6v82.438L521.732,337.3,400.177,407.461ZM527.13,207.957l71.4-41.219L309.763,0l-71.4,41.219Q382.72,124.612,527.13,207.957ZM92.4,125.472l-71.4,41.219L92.4,207.91l217.367,125.52,71.4-41.219Q236.806,208.817,92.4,125.472Zm217.367,0-71.4,41.219,108.707,62.76,71.4-41.219-71.4,41.219,71.4,41.219,71.4-41.219-71.4-41.219-108.707-62.76ZM201.056,62.712l-71.4,41.219,71.4,41.219,71.4-41.219-71.4-41.219ZM73.387,366.29V323.256L219.3,407.509v43.034ZM219.3,576.014,73.387,491.762V448.728L219.3,532.98Z" transform="translate(-2.03)" fill="#fff" fill-rule="evenodd"/>
      <g id="Group_1" data-name="Group 1" transform="translate(708 75.435)">
        <path id="Path_2" data-name="Path 2" d="M154.68,137.528V18.6H217.3c22.639,0,34.246,14.424,34.246,30.329,0,15-9.266,24.98-20.49,27.272,12.657,1.958,22.83,14.281,22.83,29.231,0,17.815-11.941,32.1-34.58,32.1H154.728Zm70.975-84.157c0-7.5-5.349-13.039-13.9-13.039H179.994V66.171h31.762c8.549,0,13.9-5.349,13.9-12.848ZM228,101.9c0-7.5-5.349-13.9-15.332-13.9H180.042v27.654h32.622C222.312,115.653,228,110.495,228,101.9Z" transform="translate(-148.948 -16.642)" fill="#fff"/>
        <path id="Path_3" data-name="Path 3" d="M179.43,137.528V18.6h25.314v96.671h50.294v22.305H179.43Z" transform="translate(-55.487 -16.642)" fill="#fff"/>
        <path id="Path_4" data-name="Path 4" d="M196.75,79.708c0-35.822,26.222-61.518,62.043-61.518s62.234,25.7,62.234,61.518-26.222,61.518-62.234,61.518S196.75,115.53,196.75,79.708Zm98.247,0c0-22.305-14.281-39.07-36.2-39.07S222.781,57.4,222.781,79.708s14.09,39.07,36.013,39.07S295,101.822,295,79.708Z" transform="translate(9.918 -18.19)" fill="#fff"/>
        <path id="Path_5" data-name="Path 5" d="M225.31,79.708c0-36.538,27.654-61.518,63.285-61.518,26.222,0,41.362,14.281,49.768,29.087l-21.78,10.7c-5.015-9.648-15.714-17.29-27.989-17.29-21.589,0-37.255,16.574-37.255,39.07s15.714,39.07,37.255,39.07a31.852,31.852,0,0,0,27.989-17.29l21.78,10.508c-8.549,14.806-23.547,29.231-49.768,29.231-35.678,0-63.285-24.98-63.285-61.518Z" transform="translate(117.767 -18.19)" fill="#fff"/>
        <path id="Path_6" data-name="Path 6" d="M322.753,137.566,286.74,89.947l-9.266,11.033v36.538H252.16V18.59h25.314V71.75l42.079-53.16h31.189L303.5,74.424l50.485,63.142H322.8Z" transform="translate(219.159 -16.68)" fill="#fff"/>
        <path id="Path_7" data-name="Path 7" d="M272.95,79.708c0-36.538,27.655-61.518,63.285-61.518,26.222,0,41.362,14.281,49.769,29.087l-21.78,10.7c-5.015-9.648-15.714-17.29-27.989-17.29-21.589,0-37.255,16.574-37.255,39.07s15.714,39.07,37.255,39.07a31.852,31.852,0,0,0,27.989-17.29L386,112.043c-8.55,14.806-23.547,29.231-49.769,29.231-35.678,0-63.285-24.98-63.285-61.518Z" transform="translate(297.667 -18.19)" fill="#fff"/>
        <path id="Path_8" data-name="Path 8" d="M381.273,137.528V87.617H325.1v49.912H299.79V18.6H325.1V65.312h56.169V18.6h25.505V137.528Z" transform="translate(399.022 -16.642)" fill="#fff"/>
        <path id="Path_9" data-name="Path 9" d="M419.143,137.528l-7.308-20.156h-51.01l-7.5,20.156h-28.9l46-118.928h31.762l45.852,118.928h-28.9ZM386.33,43.914,367.8,95.115H404.91l-18.532-51.2Z" transform="translate(492.068 -16.642)" fill="#fff"/>
        <path id="Path_10" data-name="Path 10" d="M352.61,137.528V18.6h25.314V137.528Z" transform="translate(598.482 -16.642)" fill="#fff"/>
        <path id="Path_11" data-name="Path 11" d="M444.858,137.528,388.164,59.962v77.566H362.85V18.6h26.031L444,93.348V18.6h25.314V137.528H444.858Z" transform="translate(637.151 -16.642)" fill="#fff"/>
        <path id="Path_12" data-name="Path 12" d="M154.68,182.328V63.4h25.314V182.328Z" transform="translate(-148.948 152.534)" fill="#fff"/>
        <path id="Path_13" data-name="Path 13" d="M246.918,182.328l-56.694-77.566v77.566H164.91V63.4H190.94l55.118,74.748V63.4h25.314V182.328Z" transform="translate(-110.317 152.534)" fill="#fff"/>
        <path id="Path_14" data-name="Path 14" d="M225.361,182.366V85.7H190.59V63.39h94.856V85.7h-34.58v96.671Z" transform="translate(-13.344 152.496)" fill="#fff"/>
        <path id="Path_15" data-name="Path 15" d="M213.85,182.328V63.4h84.157V85.705H239.164v25.123h57.6v22.305h-57.6v26.938h58.843v22.305H213.85Z" transform="translate(74.492 152.534)" fill="#fff"/>
        <path id="Path_16" data-name="Path 16" d="M235.61,182.328V63.4h25.314v96.671h50.294v22.305H235.61Z" transform="translate(156.663 152.534)" fill="#fff"/>
        <path id="Path_17" data-name="Path 17" d="M255.14,182.328V63.4h25.314v96.671h50.294v22.305H255.14Z" transform="translate(230.412 152.534)" fill="#fff"/>
        <path id="Path_18" data-name="Path 18" d="M274.66,182.328V63.4h25.314V182.328Z" transform="translate(304.125 152.534)" fill="#fff"/>
        <path id="Path_19" data-name="Path 19" d="M283.7,124.508c0-37.637,28.514-61.518,63.285-61.518,24.789,0,40.311,12.466,49.243,26.556l-21.063,11.415a33.756,33.756,0,0,0-28.18-15.523c-21.589,0-37.255,16.574-37.255,39.07s15.714,39.07,37.255,39.07c10.508,0,20.49-4.633,25.314-9.075V140.222h-31.38V118.108h56.694v45.661c-12.132,13.564-29.087,22.448-50.628,22.448-34.771,0-63.285-24.263-63.285-61.709Z" transform="translate(338.262 150.986)" fill="#fff"/>
        <path id="Path_20" data-name="Path 20" d="M311.77,182.328V63.4h84.157V85.705H337.084v25.123h57.6v22.305h-57.6v26.938h58.843v22.305H311.77Z" transform="translate(444.261 152.534)" fill="#fff"/>
        <path id="Path_21" data-name="Path 21" d="M415.548,182.328l-56.694-77.566v77.566H333.54V63.4h26.031l55.118,74.748V63.4H440V182.328H415.548Z" transform="translate(526.47 152.534)" fill="#fff"/>
        <path id="Path_22" data-name="Path 22" d="M359.56,124.508c0-36.538,27.655-61.518,63.285-61.518,26.222,0,41.362,14.281,49.769,29.087l-21.78,10.7c-5.015-9.648-15.714-17.29-27.989-17.29-21.589,0-37.255,16.574-37.255,39.07s15.714,39.07,37.255,39.07a31.852,31.852,0,0,0,27.989-17.29l21.78,10.508c-8.55,14.806-23.547,29.231-49.769,29.231-35.678,0-63.285-24.98-63.285-61.518Z" transform="translate(624.727 150.986)" fill="#fff"/>
        <path id="Path_23" data-name="Path 23" d="M386.4,182.328V63.4h84.157V85.705H411.714v25.123h57.6v22.305h-57.6v26.938h58.843v22.305H386.4Z" transform="translate(726.081 152.534)" fill="#fff"/>
        <path id="Path_24" data-name="Path 24" d="M153.48,169.3c0-37.637,28.514-61.518,63.285-61.518,24.789,0,40.311,12.466,49.243,26.556l-21.063,11.415a33.756,33.756,0,0,0-28.18-15.523c-21.589,0-37.255,16.574-37.255,39.07s15.714,39.07,37.255,39.07c10.508,0,20.49-4.633,25.314-9.075V185.012H210.7V162.9h56.694v45.661c-12.132,13.565-29.087,22.448-50.628,22.448-34.771,0-63.285-24.263-63.285-61.709Z" transform="translate(-153.48 320.123)" fill="#fff"/>
        <path id="Path_25" data-name="Path 25" d="M248.772,227.128l-23.356-42.27H206.884v42.27H181.57V108.2h55.643c24.789,0,39.929,16.239,39.929,38.353s-13.182,32.287-26.03,35.3l26.747,45.279Zm2.484-80.623c0-9.982-7.69-16.048-17.815-16.048H206.884v32.1H233.44C243.613,162.554,251.255,156.488,251.255,146.505Z" transform="translate(-47.405 321.709)" fill="#fff"/>
        <path id="Path_26" data-name="Path 26" d="M204.37,169.3c0-35.822,26.222-61.518,62.043-61.518s62.234,25.7,62.234,61.518-26.222,61.518-62.234,61.518S204.37,205.12,204.37,169.3Zm98.247,0c0-22.305-14.281-39.07-36.2-39.07S230.4,146.993,230.4,169.3s14.09,39.07,36.013,39.07,36.2-16.956,36.2-39.07Z" transform="translate(38.693 320.123)" fill="#fff"/>
        <path id="Path_27" data-name="Path 27" d="M234.12,179.7V108.2h25.7v70.641c0,16.574,9.648,27.989,27.989,27.989s27.845-11.415,27.845-27.989V108.2H341.49v71.357c0,29.613-17.481,49.768-53.685,49.768s-53.685-20.347-53.685-49.577Z" transform="translate(151.036 321.709)" fill="#fff"/>
        <path id="Path_28" data-name="Path 28" d="M261.49,227.128V108.2h55.643c25.839,0,39.929,17.481,39.929,38.353s-14.281,38.353-39.929,38.353H286.8v42.27H261.49Zm69.733-80.623c0-9.982-7.5-16.048-17.481-16.048H286.8v32.1h26.938C323.724,162.554,331.223,156.3,331.223,146.505Z" transform="translate(254.391 321.709)" fill="#fff"/>
      </g>
    </g>
  </g>
</svg>
